<svg width="765" height="1701" viewBox="0 0 765 1701" fill="none" xmlns="http://www.w3.org/2000/svg">
<path d="M372.724 1444.02H374.374V1446.12H372.724V1444.02Z" fill="white"/>
<path d="M397.473 1446.12H395.823V1444.02H397.473V1446.12Z" fill="white"/>
<path d="M372.724 1444.02H371.074V1442.07H372.724V1444.02Z" fill="white"/>
<path d="M385.923 1444.02V1446.12H387.573V1448.22H390.873V1450.17H382.624V1448.22H377.674V1444.02H374.374V1442.07H382.624V1444.02H385.923" fill="white"/>
<path d="M399.122 1439.97H397.473V1437.87H399.122V1439.97Z" fill="white"/>
<path d="M205.936 1086.74V1090.94H204.286V1088.84H202.636V1086.74H200.986V1084.64H199.336V1082.54H197.686V1080.44H194.387V1078.34H192.737V1076.24H191.087V1074.14H189.437V1072.04H192.737V1074.14H194.387V1076.24H197.686V1078.34H199.336V1080.44H202.636V1082.54H204.286V1086.74H205.936" fill="white"/>
<path d="M202.636 1074.14H200.986V1072.04H202.636V1074.14Z" fill="white"/>
<path d="M189.437 1072.04H187.787V1069.94H189.437V1072.04Z" fill="white"/>
<path d="M504.715 1072.04V1069.94H506.365V1072.04H504.715Z" fill="white"/>
<path d="M220.785 1065.74V1067.84H219.135V1065.74H220.785Z" fill="white"/>
<path d="M144.89 1030.04H143.24V1027.94H144.89V1030.04Z" fill="white"/>
<path d="M138.29 1021.64V1019.54H139.94V1021.64H138.29Z" fill="white"/>
<path d="M156.439 979.493H158.089V981.593H156.439V979.493Z" fill="white"/>
<path d="M158.089 979.493V977.393H159.739V979.493H158.089Z" fill="white"/>
<path d="M159.739 977.393V975.293H161.389V977.393H159.739Z" fill="white"/>
<path d="M166.339 975.293V977.393H164.689V975.293H166.339Z" fill="white"/>
<path d="M171.288 975.293H166.339V973.194H167.988V971.094H169.638V973.194H171.288V975.293" fill="white"/>
<path d="M167.988 968.994H166.339V962.544H167.988V968.994Z" fill="white"/>
<path d="M219.135 524.12H217.485V519.77H219.135V524.12Z" fill="white"/>
<path d="M219.135 515.57V517.67H217.485V515.57H219.135Z" fill="white"/>
<path d="M229.034 506.871H225.734V504.621H227.384V502.521H229.034V506.871Z" fill="white"/>
<path d="M210.885 288.633H209.236V286.383H210.885V288.633Z" fill="white"/>
<path d="M504.715 1072.04V1074.14H503.065V1076.24H501.415V1080.44H499.766V1082.54H503.065V1084.64H506.365V1086.74H508.015V1088.84H509.665V1093.04H511.315V1095.14H512.965V1097.24H514.615V1099.34H516.264V1101.44H517.914V1103.54H519.564V1105.64H522.864V1107.74H524.514V1111.94H526.164V1114.04H527.814V1116.14H529.463V1118.24H531.113V1120.34H532.763V1122.43H534.413V1124.53H536.063V1130.83H537.713V1135.03H539.363V1136.98H541.013V1141.18H542.663V1143.28H544.312V1145.38H545.962V1147.48H550.912V1145.38H552.562V1147.48H559.161V1145.38H562.461V1141.18H569.061V1139.08H574.01V1136.98H577.31V1141.18H575.66V1147.48H574.01V1155.88H572.361V1162.18H570.711V1164.28H569.061V1166.38H567.411V1170.43H565.761V1178.83H564.111V1183.03H565.761V1185.13H562.461V1187.23H552.562V1185.13H549.262V1183.03H542.663V1185.13H541.013V1191.43H537.713V1193.38H529.463V1191.43H522.864V1193.38H517.914V1195.48H514.615V1197.58H512.965V1201.78H514.615V1205.98H512.965V1210.18H511.315V1216.33H509.665V1218.43H508.015V1220.53H509.665V1224.73H508.015V1226.83H506.365V1228.93H504.715V1232.98H503.065V1235.08H501.415V1237.18H499.766V1239.28H498.116V1241.38H494.816V1243.48H493.166V1245.58H489.866V1247.53H488.216V1249.63H486.566V1251.73H481.617V1255.93H479.967V1260.13H478.317V1266.28H476.667V1274.53H475.017V1280.83H473.367V1282.93H471.717V1287.13H470.068V1289.08H468.418V1291.18H466.768V1297.47H465.118V1299.42H463.468V1301.52H465.118V1303.62H461.818V1311.87H466.768V1316.07H468.418V1318.17H470.068V1320.27H471.717V1326.42H473.367V1334.67H475.017V1336.77H476.667V1338.87H471.717V1340.97H473.367V1342.92H476.667V1347.12H478.317V1355.37H476.667V1365.72H478.317V1371.87H479.967V1376.07H478.317V1382.22H479.967V1384.32H481.617V1392.57H483.267V1396.62H484.917V1398.72H463.468V1400.82H460.168V1402.92H456.868V1404.87H453.569V1402.92H451.919V1404.87H448.619V1406.97H445.319V1409.07H442.02V1411.17H440.37V1415.22H438.72V1417.32H437.07V1419.42H433.77V1421.37H430.47V1423.47H427.171V1425.57H423.871V1427.67H418.921V1431.72H415.621V1433.82H412.322V1435.77H409.022V1437.87H405.722V1435.77H407.372V1433.82H400.772V1435.77H395.823V1437.87H392.523V1439.97H394.173V1444.02H390.873V1446.12H387.573V1444.02H385.923V1442.07H382.624V1439.97H377.674V1437.87H376.024V1439.97H372.724V1437.87H371.074V1442.07H367.775V1439.97H366.125V1437.87H362.825V1435.77H361.175V1433.82H357.875V1431.72H354.576V1429.62H351.276V1427.67H349.626V1425.57H344.676V1423.47H339.727V1421.37H333.127V1419.42H323.228V1421.37H310.029V1423.47H305.079V1421.37H301.779V1419.42H300.129V1417.32H288.58V1419.42H273.731V1417.32H267.132V1415.22H265.482V1413.12H263.832V1409.07H265.482V1406.97H267.132V1402.92H265.482V1404.87H262.182V1413.12H252.283V1411.17H250.633V1409.07H245.683V1406.97H242.383V1411.17H240.733V1413.12H237.434V1415.22H235.784V1417.32H234.134V1421.37H217.485V1423.47H212.535V1425.57H210.885H199.336V1427.67H196.036V1429.62H191.087V1431.72H187.787V1435.77H182.837V1439.97H179.538V1442.07H177.888V1437.87H176.238V1435.77H172.938V1437.87H171.288V1433.82H172.938V1427.67H176.238V1421.37H177.888V1419.42H179.538V1417.32H181.188V1413.12H182.837V1411.17H184.487V1406.97H186.137V1402.92H187.787V1396.62H186.137V1392.57H189.437V1390.47H191.087V1388.37H192.737V1384.32H194.387V1380.12H196.036V1369.92H194.387V1361.52H196.036V1359.57H197.686V1357.47H199.336V1353.27H200.986V1351.32H202.636V1347.12H204.286V1345.02H205.936V1338.87H207.586V1330.62H209.236V1318.17H210.885V1307.82H209.236V1301.52H207.586V1297.47H205.936V1285.03H207.586V1276.63H209.236V1266.28H210.885V1262.08H209.236V1258.03H205.936V1255.93H207.586V1245.58H209.236V1220.53H207.586V1212.28H205.936V1210.18H202.636V1208.08H197.686V1205.98H194.387V1203.88H191.087V1201.78H194.387V1199.68H196.036V1197.58H197.686V1193.38H199.336V1187.23H200.986V1183.03H202.636V1178.83H204.286V1174.63H205.936V1170.43H207.586V1164.28H209.236V1157.98H210.885V1151.68H212.535V1141.18H214.185V1126.63H212.535V1114.04H210.885V1105.64H209.236V1099.34H207.586V1095.14H205.936V1090.94H209.236V1088.84H207.586V1086.74H205.936V1082.54H210.885V1084.64H212.535V1082.54H215.835V1084.64H214.185V1086.74H217.485V1084.64H220.785V1086.74H224.085V1088.84H225.734V1086.74H229.034V1088.84H232.484V1090.94H235.784V1088.84H232.484V1086.74H229.034V1084.64H225.734V1082.54H222.435V1080.44H219.135V1076.24H220.785V1069.94H222.435V1065.74H220.785V1063.64H217.485V1061.54H219.135V1053.14H217.485V1057.34H215.835V1059.44H214.185V1061.54H210.885V1063.64H215.835V1065.74H217.485V1069.94H215.835V1072.04H214.185V1074.14H209.236V1072.04H204.286V1069.94H202.636V1067.84H199.336V1065.74H197.686V1063.64H191.087V1061.54H187.787V1063.64H184.487V1065.74H182.837V1069.94H181.188V1072.04H177.888H174.588H171.288V1076.24H169.638V1078.34H166.339H164.689V1080.44H159.739V1082.54H158.089H156.439V1084.64H154.789H153.139H151.49V1082.54H149.84H144.89V1084.64H141.59H134.991V1086.74H133.341H131.691V1088.84H125.091V1084.64H126.741V1082.54H128.391V1078.34H130.041V1076.24H131.691V1053.14H130.041V1048.94H128.391V1042.64H126.741V1040.54H125.091V1036.34H123.442V1034.24H121.792V1032.14H120.142V1030.04H118.492V1027.94H116.842V1025.84H118.492H120.142H121.792V1023.74H123.442H126.741H128.391H130.041H134.991V1021.64H138.29V1023.74H139.94V1025.84H141.59V1030.04H139.94V1032.14H144.89V1034.24H146.54V1036.34H148.19V1032.14H153.139V1034.24H154.789V1036.34H156.439V1038.44H158.089V1040.54H159.739V1038.44H158.089V1034.24H156.439V1032.14H154.789V1030.04H153.139V1025.84H156.439V1023.74H159.739V1025.84H166.339V1027.94H167.988V1023.74H166.339V1021.64H167.988V1019.54H171.288V1021.64H172.938V1019.54H176.238V1017.44H167.988V1015.34H161.389V1017.44H159.739V1019.54H158.089V1013.24H161.389V1011.14H164.689V1009.04H166.339V1006.94H172.938V1004.84H176.238V1002.74H182.837V1000.64H184.487V998.392H182.837V992.093H181.188V985.793H179.538V983.693H177.888V981.593H174.588V979.493H171.288V975.294H172.938V971.094H169.638V960.444H171.288V956.245H172.938V954.145H174.588V952.045H177.888V949.945H179.538V947.845H181.188V941.396H182.837V937.196H184.487V935.096H197.686V932.996H194.387V930.896H187.787V932.996H182.837V935.096H181.188V937.196H179.538V941.396H177.888V945.745H176.238V947.845H174.588V949.945H172.938V952.045H171.288V954.145H169.638V956.245H167.988V958.345H166.339V960.444H164.689V968.994H163.039V971.094H161.389V973.194H159.739V975.294H156.439V979.493H154.789V981.593H153.139V985.793H151.49V994.192H149.84V1006.94H148.19V1009.04H146.54V1011.14H144.89V1013.24H143.24V1015.34H138.29V1017.44H130.041V1019.54H123.442V1017.44H113.542V1019.54H106.943V1021.64H105.293V1023.74H103.643V1021.64H98.6932V1019.54H93.7436V1017.44H85.4941V1019.54H82.1944V1017.44H73.9449V1015.34H72.295V1013.24H73.9449V1002.74H70.6451V992.093H72.295V987.893H73.9449V985.793H75.5948V981.593H77.2447V979.493H78.8946V975.294H80.5445V971.094H82.1944V966.744H83.8442V962.544H85.4941V956.245H87.144V952.045H85.4941V920.247H87.144V916.047H88.7939V913.947H90.4438V909.747H92.0937V907.648H93.7436V903.298H95.3934V899.098H97.0433V894.898H98.6932V886.349H100.343V877.949H101.993V869.4H100.343V865.2H98.6932V860.85H97.0433V854.551H95.3934V852.451H88.7939V848.101H95.3934V850.351H100.343V848.101H103.643V846.001H108.593V843.901H110.242V841.801H113.542V839.701H116.842V837.452H118.492V835.352H120.142V833.252H123.442V837.452H125.091V839.701H123.442V843.901H126.741V841.801H128.391V843.901H130.041V839.701H131.691V837.452H126.741V833.252H123.442V829.052H125.091V826.952H126.741V822.602H130.041V820.503H131.691V818.403H133.341V816.303H134.991V814.053H136.641V811.953H138.29V814.053H141.59V811.953H139.94V809.853H143.24V805.653H144.89V803.404H146.54V801.304H149.84V799.204H151.49V794.854H153.139V792.754H154.789V788.554H153.139V782.105H154.789V773.555H156.439V767.256H158.089V758.706H159.739V754.356H161.389V747.907H163.039V743.707H164.689V741.607H166.339V737.257H167.988V732.908H169.638V726.608H171.288V724.358H172.938V720.158H174.588V713.709H176.238V709.359H177.888V705.159H179.538V700.81H181.188V696.61H182.837V690.16H184.487V685.81H186.137V681.611H187.787V675.161H189.437V668.711H191.087V664.362H192.737V660.012H194.387V649.362H197.686V651.462H199.336V655.812H200.986V651.462H199.336V649.362H204.286V651.462H205.936V653.562H207.586V655.812H210.885V657.912H212.535V655.812H214.185V653.562H215.835V649.362" fill="white"/>
<path d="M215.835 649.362H214.185V651.462H212.535V655.812H210.885V653.562H209.236V651.462H207.586V649.362H204.286V647.113H194.387V642.913H191.087V640.663H187.787V638.563H186.137V636.463H187.787V630.014H189.437V625.664H191.087V623.564H192.737V619.214H194.387V612.764H196.037V608.415H197.686V601.965H199.336V597.615H200.986V591.166H202.636V584.716H204.286V578.266H205.936V569.567H207.586V560.867H209.236V554.418H210.885V547.968H212.535V541.519H214.185V532.819H215.835V526.369H217.485V534.919H219.135V528.469H220.785V519.77H222.435V515.57H224.085V511.22H225.734V508.971H229.034V511.22H227.384V513.32H225.734V515.57H227.384V519.77H229.034V522.02H232.484V519.77H235.784V515.57H234.134V517.67H229.034V513.32H230.834V511.22H232.484V506.871H235.784V502.521H234.134V500.271H235.784V498.171H239.084V495.921H232.484V485.122H230.834V483.022H232.484V480.772H235.784V478.672H237.434V476.422H240.733V474.323H242.383V472.073H240.733V469.973H239.084V467.723H237.434V476.422H234.134V474.323H235.784V467.723H234.134V474.323H232.484V480.772H230.834V483.022H229.034V485.122H227.384V500.271H224.085V508.971H222.435V513.32H220.785V515.57H219.135V508.971H220.785V502.521H222.435V493.821H224.085V489.472H225.734V483.022H227.384V474.323H229.034V463.373H230.834V459.023H232.484V452.574H234.134V445.974H235.784V437.275H237.434V413.276H235.784V398.127H234.134V391.527H237.434V389.427H239.084V387.178H232.484V384.928H230.834V382.828H229.034V378.478H227.384V376.228H225.734V374.128H224.085V365.279H222.435V349.98H220.785V345.63H219.135V336.93H217.485V332.431H215.835V325.981H214.185V323.731H212.535V321.481H210.885V315.032H212.535V297.483H210.885V288.633H212.535V290.883H214.185V288.633H212.535V286.383H210.885V282.034H209.236V277.684H207.586V266.735H205.936V262.235H204.286V257.885H202.636V246.936H200.986V244.686H199.336V242.436H197.686V240.336H196.037V235.836H194.387V229.237H192.737V224.887H194.387V209.438H192.737V204.938H194.387V200.588H196.037V198.338H199.336V196.239H202.636V191.739H204.286V189.489H207.586V185.139H210.885V182.889H214.185V180.639H217.485V176.29H219.135V171.79H220.785V169.69H222.435V167.44H229.034V165.19H232.484V162.94H234.134V160.841H235.784V158.591H237.434V151.991H240.733V149.741H242.383V147.492H260.532V145.242H262.182V143.142H263.832V140.892H286.93V138.642H288.58V140.892H291.88V138.642H295.18V136.392H296.83V138.642H301.779V136.392H303.429V134.292H308.379V132.042H311.679V129.792H316.628V127.543H321.578V125.293H324.878V123.193H328.177V129.792H329.827V140.892H331.477V145.242H333.127V143.142H336.427V140.892H344.676V143.142H347.976V145.242H349.626V151.991H351.276V154.091H349.626V158.591H346.326V160.841H343.026V162.94H339.727V165.19H336.427V167.44H334.777V169.69H333.127V171.79H331.477V174.04H329.827V176.29H328.177V178.54H326.528V180.639H324.878V185.139H323.228V187.389H324.878V189.489H326.528V193.989H333.127V196.239H334.777V204.938H336.427V211.688H343.026V213.788H352.926V211.688H356.225V209.438H361.175V207.188H366.125V202.838H367.775V200.588H369.425V198.338H371.074V196.239H380.974V193.989H382.624V191.739H384.274V182.889H385.923V180.639H387.573V182.889H390.873V189.489H389.223V200.588H397.473V198.338H399.122V193.989H409.022V191.739H412.322V189.489H423.871V187.389H430.47V189.489H432.12V191.739H435.42V193.989H448.619V196.239H446.969V198.338H445.319V200.588H443.669V204.938H448.619V207.188H455.219V204.938H458.518V202.838H463.468V200.588H465.118V198.338H463.468V196.239H468.418V198.338H475.017V200.588H476.667V204.938H479.967V211.688H484.917V209.438H486.566V204.938H489.866V202.838H498.116V204.938H499.766V202.838H509.665V200.588H511.315V198.338H516.264V196.239H521.214V193.989H524.514V191.739H526.164V189.489H527.814V187.389H529.463V180.639H527.814V167.44H529.463V165.19H542.663V167.44H547.612V169.69H549.262V171.79H550.912V174.04H552.562V176.29H554.212V174.04H560.811V176.29H564.111V174.04H565.761V171.79H567.411V169.69H572.361V171.79H575.66V176.29H580.61V178.54H590.509V176.29H600.409V174.04H602.058V167.44H603.708V165.19H610.308V167.44H611.958V169.69H613.608V174.04H615.258V176.29H616.907V178.54H636.706V176.29H646.605V169.69H649.905V174.04H651.555V176.29H653.205V178.54H654.855V182.889H653.205V187.389H651.555V193.989H658.155V196.239H659.804V198.338H658.155V202.838H656.505V204.938H658.155V207.188H656.505V211.688H654.855V216.038H653.205V224.887H651.555V226.987H649.905V229.237H651.555V233.587H653.205V238.086H654.855V240.336H653.205V242.436H651.555V244.686H656.505V246.936H659.804V249.036H661.454V251.285H671.354V249.036H673.004V246.936H674.653V244.686H677.953V246.936H696.102V249.036H699.402V251.285H706.001V253.535H709.301V255.635H710.951V257.885H712.601V260.135H714.251V262.235H715.901V264.485H717.55V266.735H720.85V268.834H724.15V271.084H725.8V273.334H724.15V275.434H720.85V279.934H719.2V282.034H717.55V284.284H715.901V286.383H714.251V288.633H710.951V292.983H709.301V295.233H707.651V297.483H706.001V299.583H704.351V304.082H702.701V308.432H701.052V315.032H699.402V317.132H697.752V321.481H696.102V323.731H689.502V321.481H684.553V325.981V328.081H686.203V330.331V332.431H684.553H682.903V334.681H679.603V339.03H677.953V341.28V343.38H674.653V345.63H671.354V347.88H668.054V349.98H666.404V352.23H663.104V354.329H661.454V356.579H656.505H654.855V358.829H653.205V360.929H649.905V363.179H641.656V360.929H635.056V363.179H633.406H631.756V365.279H630.107V367.529H628.457V369.629H626.807V371.878H625.157V374.128V376.228H623.507V378.478H621.857V380.578H620.207V382.828H618.557V384.928H616.907V387.178H613.608V389.427H610.308V393.777H611.958V400.227H610.308V402.477H608.658V406.826H607.008V408.926H605.358V411.176H603.708V413.276H600.409V415.526H595.459V417.776H587.21V415.526H585.56H577.31V419.876H578.96V422.125H580.61V424.225H582.26V426.475H583.91V428.575H585.56V430.825H587.21V432.925H588.859V435.175H592.159V439.524H593.809V443.874H595.459V452.574H597.109V454.674H600.409V456.924H602.058V459.023H603.708V465.623H600.409V469.973H598.759V472.073H600.409V478.672H598.759V493.821H600.409V498.171H602.058V506.871H603.708V515.57H605.358V519.77H603.708V524.12H602.058V528.469H600.409V530.719H598.759V534.919H597.109V539.269H602.058V541.519H603.708V543.618H605.358V552.318H603.708V554.418H602.058V556.668H600.409V560.867H598.759V563.117H597.109V565.217H595.459V571.817H597.109V578.266H598.759V580.366H600.409V584.716H602.058V586.816H605.358V589.066H608.658V591.166H607.008V593.266H605.358V599.865H602.058V601.965H598.759V604.065H595.459V606.315H593.809V608.415H592.159V616.964H585.56V619.214H574.01V621.314H572.361V623.564H565.761V625.664H564.111V627.764H562.461V630.014H560.811V632.113V636.463V642.913H562.461V651.462H564.111V653.562H570.711V655.812H575.66V657.912H577.31V660.012H578.96V662.262H580.61V666.461H582.26V668.711H585.56V672.911H587.21V677.261H588.859V679.361H590.509V683.71H588.859V687.91H587.21V692.26H585.56V698.71H587.21V700.809H585.56V703.059H583.91V705.159H582.26V707.259H583.91V720.158H582.26V722.258H580.61V724.358H577.31V728.708H575.66V730.808H570.711V732.908H567.411V741.607H569.061V745.807H567.411V747.907H565.761V756.456H564.111V765.006H562.461V769.355H557.512V771.455H552.562V773.555H547.612V771.455H536.063V773.555H532.763V771.455H509.665V773.555H503.065V775.655H494.816V773.555H479.967V771.455H460.168V777.905H461.818V782.105H463.468V786.454H465.118V788.554H466.768V790.654H468.418V792.754H473.367V794.854H475.017V797.104H476.667V801.304H478.317V803.403H484.917V805.653H486.566V809.853H488.216V816.303H491.516V818.403H496.466V820.502H501.415V822.602H504.715V824.702H506.365V826.952H504.715V837.451H503.065V839.701H499.766V841.801H498.116V843.901H499.766V848.101H501.415V852.451H503.065V854.55H504.715V856.65H506.365V858.75H508.015V860.85H509.665V863.1H512.965V865.2H514.615V867.3H517.914V873.599H516.264V886.349H517.914V890.548H521.214V892.798H524.514V894.898H534.413V896.998H537.713V903.298H536.063V913.947H539.363V916.047H544.312V913.947H549.262V911.847H554.212V909.747H557.512V911.847H559.161V913.947H562.461V916.047H565.761V918.147H567.411V920.247H569.061V922.347H570.711V930.896H572.361V937.196H570.711V941.395H569.061V943.495H567.411V945.745H565.761V947.845H564.111V949.945H562.461V954.145H560.811V958.344H559.161V960.444H557.512V962.544H554.212" fill="white"/>
<path d="M554.212 962.544V966.744H555.862V968.994H557.512V975.293H552.562V977.393H550.912V979.493H549.262V981.593H547.612V985.793H545.962V987.893H537.713V989.993H536.063V992.093H534.413V994.192H532.763V996.292H531.113V998.392H527.814V1000.64H526.164V1002.74H524.514V1004.84H521.214V1006.94H517.914V1009.04H514.614V1011.14H512.965V1021.64H511.315V1034.24H516.264V1036.34H514.614V1038.44H512.965V1044.74H511.315V1046.84H509.665V1051.04H508.015V1053.14H506.365V1055.24H504.715V1061.54H503.065V1065.74H501.415V1072.04H504.715" fill="white"/>
<path d="M213 663L220.5 635L554.5 956V963L545 985L541 989L526 1020L501 1072L213 663Z" fill="white"/>
<path d="M204.286 932.996H207.586V930.896H209.236V928.796H212.535V926.696H215.835V924.596H217.485V920.247H219.135V918.147H220.785V916.047H222.435V911.847H220.785V913.947H219.135V916.047H217.485V920.247H215.835V924.596H209.236V926.696H205.936V930.896H204.286V932.996H202.636V935.096H204.286V932.996" fill="white"/>
<path d="M237.434 513.32V511.22H235.784V513.32H237.434Z" fill="white"/>
<path d="M245.683 498.171V493.821H242.383V495.921H240.733V498.171H245.683" fill="white"/>
<path d="M237.434 465.623V463.373H235.784V465.623H237.434Z" fill="white"/>
<path d="M222.435 240.336H224.085V238.086H222.435V240.336H210.885V242.436H204.286V244.686H215.835V242.436H222.435V240.336Z" fill="white"/>
<path d="M240.733 1088.84V1090.94H237.434V1093.04H242.383V1088.84H240.733" fill="white"/>
<path d="M214.185 1260.13V1262.08H215.835V1264.18H217.485V1268.38H219.135V1272.58H220.785V1266.28H219.135V1262.08H217.485V1260.13H214.185" fill="white"/>
<path d="M248.983 1404.87V1406.97H250.633V1404.87H248.983Z" fill="white"/>
</svg>
