<svg width="1024" height="1024" viewBox="0 0 1024 1024" fill="none" xmlns="http://www.w3.org/2000/svg">
<path fill-rule="evenodd" clip-rule="evenodd" d="M148.789 492.037C179.557 451.871 231.313 391.21 296.035 340.926C361.207 290.292 435.446 253.333 512.001 253.333C588.555 253.333 662.794 290.292 727.966 340.926C792.68 391.203 844.431 451.856 875.201 492.022C884.456 504.142 884.43 519.921 875.212 531.963C844.444 572.129 792.688 632.79 727.966 683.074C662.794 733.708 588.555 770.667 512.001 770.667C435.446 770.667 361.207 733.708 296.035 683.074C231.313 632.79 179.557 572.129 148.789 531.963C148.734 531.892 148.679 531.82 148.624 531.749C144.236 526.101 141.854 519.152 141.854 512C141.854 504.848 144.236 497.899 148.624 492.251C148.656 492.209 148.689 492.167 148.721 492.125C148.744 492.096 148.767 492.066 148.789 492.037ZM938.72 443.387L906.961 467.716L938.743 443.418C969.922 484.2 969.946 539.834 938.724 580.607L938.72 580.613C905.786 623.605 849.276 690.132 777.048 746.248C705.271 802.014 613.878 850.667 512.001 850.667C410.123 850.667 318.73 802.014 246.953 746.248C174.778 690.174 118.298 623.703 85.3543 580.708C70.1217 561.045 61.8542 536.876 61.8542 512C61.8542 487.124 70.122 462.954 85.3553 443.291C118.299 400.296 174.779 333.826 246.953 277.752C318.73 221.986 410.123 173.333 512.001 173.333C613.878 173.333 705.271 221.986 777.048 277.752C849.276 333.868 905.786 400.395 938.72 443.387ZM424 512C424 463.399 463.399 424 512 424C560.601 424 600 463.399 600 512C600 560.601 560.601 600 512 600C463.399 600 424 560.601 424 512ZM512 344C419.216 344 344 419.216 344 512C344 604.784 419.216 680 512 680C604.784 680 680 604.784 680 512C680 419.216 604.784 344 512 344Z" fill="black"/>
</svg>
